<svg width="1440" height="1165" viewBox="0 0 1440 1165" fill="none" xmlns="http://www.w3.org/2000/svg">
<mask id="mask0" mask-type="alpha" maskUnits="userSpaceOnUse" x="-57" y="-327" width="1637" height="1492">
<rect x="-57" y="-327" width="1637" height="1492" fill="#C4C4C4"/>
</mask>
<g mask="url(#mask0)">
<path d="M-253 1258.06L674.057 560.125" stroke="#420CFF" stroke-opacity="0.4" stroke-miterlimit="10"/>
<path d="M-202.889 1258.06L723.611 560.544" stroke="#420CFF" stroke-opacity="0.4" stroke-miterlimit="10"/>
<path d="M-152.777 1258.06L774.28 560.124" stroke="#420CFF" stroke-opacity="0.4" stroke-miterlimit="10"/>
<path d="M-102.667 1258.06L824.39 560.124" stroke="#420CFF" stroke-opacity="0.4" stroke-miterlimit="10"/>
<path d="M-52.5557 1258.06L874.501 560.124" stroke="#420CFF" stroke-opacity="0.4" stroke-miterlimit="10"/>
<path d="M-2.44434 1258.06L924.613 560.124" stroke="#420CFF" stroke-opacity="0.4" stroke-miterlimit="10"/>
<path d="M47.667 1258.06L974.724 560.124" stroke="#420CFF" stroke-opacity="0.4" stroke-miterlimit="10"/>
<path d="M97.7783 1258.06L1024.84 560.124" stroke="#420CFF" stroke-opacity="0.4" stroke-miterlimit="10"/>
<path d="M147.89 1258.06L1074.95 560.124" stroke="#420CFF" stroke-opacity="0.4" stroke-miterlimit="10"/>
<path d="M198.001 1258.06L1125.06 560.124" stroke="#420CFF" stroke-opacity="0.4" stroke-miterlimit="10"/>
<path d="M-253 -137.81L699.113 578.987" stroke="#420CFF" stroke-opacity="0.4" stroke-miterlimit="10"/>
<path d="M-202.889 -137.81L749.224 578.987" stroke="#420CFF" stroke-opacity="0.4" stroke-miterlimit="10"/>
<path d="M-152.777 -137.81L799.335 578.987" stroke="#420CFF" stroke-opacity="0.4" stroke-miterlimit="10"/>
<path d="M-102.667 -137.81L849.446 578.987" stroke="#420CFF" stroke-opacity="0.4" stroke-miterlimit="10"/>
<path d="M-92.5244 -167.968L899.914 578.78" stroke="#420CFF" stroke-opacity="0.4" stroke-miterlimit="10"/>
<path d="M-103.282 -213.557L949.223 578.78" stroke="#420CFF" stroke-opacity="0.4" stroke-miterlimit="10"/>
<path d="M-98.7998 -248.204L999.427 578.78" stroke="#420CFF" stroke-opacity="0.4" stroke-miterlimit="10"/>
<path d="M-99.6963 -286.499L1049.63 578.78" stroke="#420CFF" stroke-opacity="0.4" stroke-miterlimit="10"/>
<path d="M-99.6963 -323.882L1099.84 578.78" stroke="#420CFF" stroke-opacity="0.4" stroke-miterlimit="10"/>
<path d="M-102.386 -364L1124.94 560.545" stroke="#420CFF" stroke-opacity="0.4" stroke-miterlimit="10"/>
</g>
</svg>
