<svg width="1440" height="1132" viewBox="0 0 1440 1132" fill="none" xmlns="http://www.w3.org/2000/svg">
<path d="M-346 1L471.526 1105.4" stroke="#FF6699" stroke-opacity="0.2" stroke-miterlimit="10"/>
<path d="M-346 60.6978L471.035 1164.44" stroke="#FF6699" stroke-opacity="0.2" stroke-miterlimit="10"/>
<path d="M-346 120.395L471.526 1224.8" stroke="#FF6699" stroke-opacity="0.2" stroke-miterlimit="10"/>
<path d="M-346 180.092L471.526 1284.5" stroke="#FF6699" stroke-opacity="0.2" stroke-miterlimit="10"/>
<path d="M-346 239.79L471.526 1344.19" stroke="#FF6699" stroke-opacity="0.2" stroke-miterlimit="10"/>
<path d="M-346 299.488L471.526 1403.89" stroke="#FF6699" stroke-opacity="0.2" stroke-miterlimit="10"/>
<path d="M-346 359.185L471.526 1463.59" stroke="#FF6699" stroke-opacity="0.2" stroke-miterlimit="10"/>
<path d="M-346 418.883L471.526 1523.29" stroke="#FF6699" stroke-opacity="0.2" stroke-miterlimit="10"/>
<path d="M-346 478.58L471.526 1582.98" stroke="#FF6699" stroke-opacity="0.2" stroke-miterlimit="10"/>
<path d="M-346 538.278L471.526 1642.68" stroke="#FF6699" stroke-opacity="0.2" stroke-miterlimit="10"/>
<path d="M1289.05 1L449.431 1135.25" stroke="#FF6699" stroke-opacity="0.2" stroke-miterlimit="10"/>
<path d="M1289.05 60.6978L449.431 1194.95" stroke="#FF6699" stroke-opacity="0.2" stroke-miterlimit="10"/>
<path d="M1289.05 120.395L449.431 1254.65" stroke="#FF6699" stroke-opacity="0.2" stroke-miterlimit="10"/>
<path d="M1289.05 180.092L449.431 1314.35" stroke="#FF6699" stroke-opacity="0.2" stroke-miterlimit="10"/>
<path d="M1324.38 192.175L449.672 1374.47" stroke="#FF6699" stroke-opacity="0.2" stroke-miterlimit="10"/>
<path d="M1377.78 179.359L449.672 1433.21" stroke="#FF6699" stroke-opacity="0.2" stroke-miterlimit="10"/>
<path d="M1418.36 184.699L449.672 1493.02" stroke="#FF6699" stroke-opacity="0.2" stroke-miterlimit="10"/>
<path d="M1463.22 183.631L449.672 1552.83" stroke="#FF6699" stroke-opacity="0.2" stroke-miterlimit="10"/>
<path d="M1507.01 183.631L449.672 1612.64" stroke="#FF6699" stroke-opacity="0.2" stroke-miterlimit="10"/>
<path d="M1554 180.427L471.032 1642.54" stroke="#FF6699" stroke-opacity="0.2" stroke-miterlimit="10"/>
</svg>
