<svg id="Layer_1" data-name="Layer 1" xmlns="http://www.w3.org/2000/svg" viewBox="0 0 645.36323 650"><defs><style>.cls-1{fill:#212121;}</style></defs><title>USE</title><path class="cls-1" d="M118.87293,491.8,18.14464,433.64378a324.29017,324.29017,0,0,0,48.05474,88.56967Z"/><polygon class="cls-1" points="366.153 285.503 227.821 365.369 282.839 397.134 421.171 317.268 366.153 285.503"/><path class="cls-1" d="M446.80581,491.8,554.922,554.22146a324.147,324.147,0,0,0,90.4412-177.05887Z"/><path class="cls-1" d="M366.15328,96.17043,471.77146,35.19254A326.04239,326.04239,0,0,0,225.95458,15.227L332.63013,76.81648h0Z"/><path class="cls-1" d="M282.83888,586.46581l-73.59126,42.48873A326.92133,326.92133,0,0,0,383.595,644.64182l-100.7571-58.17207Z"/><path class="cls-1" d="M530.11921,190.83727l111.96061,64.6356a323.11593,323.11593,0,0,0-42.99111-104.45751l-68.96647,39.814Z"/><path class="cls-1" d="M202.18635,190.83727,74.6447,117.20033A323.54439,323.54439,0,0,0,0,307.56958l64.01308-36.95846Z"/><path class="cls-1" d="M278.16646,273.19158h0L289.368,266.724l22.13-12.77621h0L486.96627,152.64071l78.75912-45.47329A327.00528,327.00528,0,0,0,523.8155,68.255l-83.18135,48.02595-1.84275,1.06336L256.84264,222.39752,63.85522,333.814h0L9.19891,365.3703h0l54.65433,31.5553,54.65729-31.5553Z"/><path class="cls-1" d="M311.498,127.72571,163.817,42.4633a325.79592,325.79592,0,0,0-49.39908,34.58948L256.84264,159.281Z"/><polygon class="cls-1" points="311.498 190.837 311.498 190.837 366.153 159.282 366.153 159.282 311.498 190.837"/><polygon class="cls-1" points="228.184 428.689 173.166 396.925 118.511 428.48 173.528 460.245 228.184 428.689"/><path class="cls-1" d="M337.4942,554.90854,454.996,622.74816a324.51507,324.51507,0,0,0,55.40794-31.12137L392.15352,523.35334Z"/><polygon class="cls-1" points="530.482 254.157 475.464 222.393 420.81 253.947 475.827 285.713 530.482 254.157"/><path class="cls-1" d="M585.13792,285.71261h0L530.48263,317.2679h0l-34.06725,19.66869L337.4952,428.68936h0L208.9716,502.89225,103.85384,563.58219a326.29239,326.29239,0,0,0,46.84939,36.06091h0l77.48033-44.73456,163.967-94.66586L530.48263,380.3765l54.65529-31.5553,54.65529-31.5553Z"/></svg>