<svg id="Layer_1" data-name="Layer 1" xmlns="http://www.w3.org/2000/svg" xmlns:xlink="http://www.w3.org/1999/xlink" viewBox="0 0 645.36323 650"><defs><style>.cls-1{fill:url(#linear-gradient);}.cls-2{fill:url(#linear-gradient-2);}.cls-3{fill:url(#linear-gradient-3);}.cls-4{fill:url(#linear-gradient-4);}.cls-5{fill:url(#linear-gradient-5);}.cls-6{fill:url(#linear-gradient-6);}.cls-7{fill:url(#linear-gradient-7);}.cls-8{fill:url(#linear-gradient-8);}.cls-9{fill:url(#linear-gradient-9);}.cls-10{fill:url(#linear-gradient-10);}.cls-11{fill:url(#linear-gradient-11);}.cls-12{fill:url(#linear-gradient-12);}.cls-13{fill:url(#linear-gradient-13);}.cls-14{fill:url(#linear-gradient-14);}</style><linearGradient id="linear-gradient" x1="18.14464" y1="172.07138" x2="118.87293" y2="172.07138" gradientTransform="matrix(1, 0, 0, -1, 0, 650)" gradientUnits="userSpaceOnUse"><stop offset="0" stop-color="#e91e63"/><stop offset="1" stop-color="#e91e63"/></linearGradient><linearGradient id="linear-gradient-2" x1="227.82116" y1="308.6814" x2="421.17099" y2="308.6814" xlink:href="#linear-gradient"/><linearGradient id="linear-gradient-3" x1="446.80581" y1="184.30798" x2="645.36323" y2="184.30798" xlink:href="#linear-gradient"/><linearGradient id="linear-gradient-4" x1="225.95458" y1="601.91479" x2="471.77146" y2="601.91479" xlink:href="#linear-gradient"/><linearGradient id="linear-gradient-5" x1="209.24762" y1="31.7671" x2="383.59498" y2="31.7671" xlink:href="#linear-gradient"/><linearGradient id="linear-gradient-6" x1="530.11921" y1="446.75588" x2="642.07982" y2="446.75588" xlink:href="#linear-gradient"/><linearGradient id="linear-gradient-7" x1="0" y1="437.61504" x2="202.18635" y2="437.61504" xlink:href="#linear-gradient"/><linearGradient id="linear-gradient-8" x1="9.19891" y1="417.4097" x2="565.72539" y2="417.4097" xlink:href="#linear-gradient"/><linearGradient id="linear-gradient-9" x1="114.41794" y1="549.12786" x2="311.49796" y2="549.12786" xlink:href="#linear-gradient"/><linearGradient id="linear-gradient-10" x1="311.49796" y1="474.94037" x2="366.15328" y2="474.94037" xlink:href="#linear-gradient"/><linearGradient id="linear-gradient-11" x1="118.51053" y1="221.41538" x2="228.18356" y2="221.41538" xlink:href="#linear-gradient"/><linearGradient id="linear-gradient-12" x1="337.4942" y1="76.94925" x2="510.40393" y2="76.94925" xlink:href="#linear-gradient"/><linearGradient id="linear-gradient-13" x1="420.8096" y1="395.94742" x2="530.48166" y2="395.94742" xlink:href="#linear-gradient"/><linearGradient id="linear-gradient-14" x1="103.85384" y1="207.32214" x2="639.79321" y2="207.32214" xlink:href="#linear-gradient"/></defs><title>USE</title><path class="cls-1" d="M118.87293,491.8,18.14464,433.64378a324.29017,324.29017,0,0,0,48.05474,88.56967Z"/><polygon class="cls-2" points="366.153 285.503 227.821 365.369 282.839 397.134 421.171 317.268 366.153 285.503"/><path class="cls-3" d="M446.80581,491.8,554.922,554.22146a324.147,324.147,0,0,0,90.4412-177.05887Z"/><path class="cls-4" d="M366.15328,96.17043,471.77146,35.19254A326.04239,326.04239,0,0,0,225.95458,15.227L332.63013,76.81648h0Z"/><path class="cls-5" d="M282.83888,586.46581l-73.59126,42.48873A326.92133,326.92133,0,0,0,383.595,644.64182l-100.7571-58.17207Z"/><path class="cls-6" d="M530.11921,190.83727l111.96061,64.6356a323.11593,323.11593,0,0,0-42.99111-104.45751l-68.96647,39.814Z"/><path class="cls-7" d="M202.18635,190.83727,74.6447,117.20033A323.54439,323.54439,0,0,0,0,307.56958l64.01308-36.95846Z"/><path class="cls-8" d="M278.16646,273.19158h0L289.368,266.724l22.13-12.77621h0L486.96627,152.64071l78.75912-45.47329A327.00528,327.00528,0,0,0,523.8155,68.255l-83.18135,48.02595-1.84275,1.06336L256.84264,222.39752,63.85522,333.814h0L9.19891,365.3703h0l54.65433,31.5553,54.65729-31.5553Z"/><path class="cls-9" d="M311.498,127.72571,163.817,42.4633a325.79592,325.79592,0,0,0-49.39908,34.58948L256.84264,159.281Z"/><polygon class="cls-10" points="311.498 190.837 311.498 190.837 366.153 159.282 366.153 159.282 311.498 190.837"/><polygon class="cls-11" points="228.184 428.689 173.166 396.925 118.511 428.48 173.528 460.245 228.184 428.689"/><path class="cls-12" d="M337.4942,554.90854,454.996,622.74816a324.51507,324.51507,0,0,0,55.40794-31.12137L392.15352,523.35334Z"/><polygon class="cls-13" points="530.482 254.157 475.464 222.393 420.81 253.947 475.827 285.713 530.482 254.157"/><path class="cls-14" d="M585.13792,285.71261h0L530.48263,317.2679h0l-34.06725,19.66869L337.4952,428.68936h0L208.9716,502.89225,103.85384,563.58219a326.29239,326.29239,0,0,0,46.84939,36.06091h0l77.48033-44.73456,163.967-94.66586L530.48263,380.3765l54.65529-31.5553,54.65529-31.5553Z"/></svg>